<svg xmlns="http://www.w3.org/2000/svg" width="1093" height="1381" viewBox="0 0 1093 1381"><title>노무현 전 대통령 — SVG 초상화</title><desc>Codex로 SVG 경로를 직접 구성한 스타일화 초상화. 참고 사진: 대한민국 국가기록원, Roh Moo-hyun presidential portrait, Wikimedia Commons, KOGL Type 1.</desc><defs>
<linearGradient id="skin" x1="0" x2="1" y1=".3" y2=".7"><stop stop-color="#efc697"/><stop offset=".5" stop-color="#e4b17f"/><stop offset="1" stop-color="#bd8358"/></linearGradient>
<linearGradient id="suit" x2="1" y2="1"><stop stop-color="#34414b"/><stop offset="1" stop-color="#172631"/></linearGradient>
<linearGradient id="neck" x2=".2" y2="1"><stop stop-color="#b77b4e"/><stop offset="1" stop-color="#deb27c"/></linearGradient>
<linearGradient id="tie" x2="1" y2=".3"><stop stop-color="#b0a168"/><stop offset=".5" stop-color="#e4d6a0"/><stop offset="1" stop-color="#8c794d"/></linearGradient>
<linearGradient id="nose" x1="0" x2="1"><stop stop-color="#ebbd88"/><stop offset=".48" stop-color="#f2c695"/><stop offset="1" stop-color="#bc8156"/></linearGradient>
<radialGradient id="cheek"><stop stop-color="#f7d6a7"/><stop offset="1" stop-color="#e4b17f" stop-opacity="0"/></radialGradient>
<pattern id="silk" width="10" height="10" patternUnits="userSpaceOnUse" patternTransform="rotate(16)"><path d="m2 0 4 5-4 5-4-5Z" fill="#f6e4af" opacity=".5"/><path d="m7 0 4 5-4 5-4-5Z" fill="#74623e" opacity=".3"/></pattern>
<clipPath id="hairClip"><path d="M280 469C250 428 248 382 244 333 243 276 264 218 285 176 343 108 435 80 601 71 689 47 814 144 796 289 837 348 800 416 752 449L735 365C729 292 700 256 627 237 528 207 440 236 373 250 333 287 317 366 311 436L309 476Z"/></clipPath>
</defs><rect width="1093" height="1381" fill="#e9e4d8"/><circle cx="550" cy="519" r="443" fill="#cbd8ce"/><path d="M1 1381 38 1045Q54 906 126 863L414 747 756 635 813 733 1030 810Q1093 835 1093 913V1381Z" fill="url(#suit)"/><path d="M404 708 741 626 759 749 633 880 498 916 418 862Z" fill="url(#neck)"/><path d="m421 754 74 116 205-146 54-78 5 85-153 242-44 156-137 62-26-178Z" fill="#f6f5ef"/><path d="m490 883 74 73-57 63 34 362H380l65-365-24-69Z" fill="url(#tie)"/><path d="M421 754 379 831 394 996 371 1205 307 1381H209l116-341-28-160Z" fill="#253440"/><path d="m758 646 91 134-33 120-67 30 82 80-335 371H374l232-408 144-225Z" fill="#263744"/><path d="M327 271C379 237 497 215 566 224 640 211 710 242 735 288L768 408C796 380 811 401 804 453L788 544Q784 578 755 638C738 705 686 751 618 774C560 802 492 790 441 764Q404 744 373 704C335 689 305 622 295 572 275 561 264 527 265 490L269 446C283 424 305 454 313 464L325 356Z" fill="url(#skin)"/><path d="M280 469C250 428 248 382 244 333 243 276 264 218 285 176 343 108 435 80 601 71 689 47 814 144 796 289 837 348 800 416 752 449L735 365C729 292 700 256 627 237 528 207 440 236 373 250 333 287 317 366 311 436L309 476Z" fill="#202b2d"/><path d="M292 459Q274 447 280 493L292 541 309 558 306 513 295 483Z" fill="#d19363"/><path d="M303 481Q278 456 291 519" fill="none" stroke="#b87950" stroke-width="6" stroke-linecap="round"/><path d="M765 422Q795 399 791 445L779 518 761 538 754 491Z" fill="#b97e54"/><path d="M770 437Q784 420 779 463L766 491" fill="none" stroke="#916044" stroke-width="7" stroke-linecap="round"/><path d="M704 295Q742 395 725 486C720 534 705 555 707 599 700 665 657 728 595 768Q715 740 755 638L771 543 763 414Q745 339 704 295Z" fill="#a66e4e" opacity=".22"/><ellipse cx="391" cy="518" rx="86" ry="100" fill="url(#cheek)"/><ellipse cx="635" cy="510" rx="82" ry="105" fill="url(#cheek)"/><path d="M336 434Q331 505 356 557L387 570Q352 516 361 459Z" fill="#eec697" opacity=".6"/><path d="M482 364C485 410 481 472 464 522Q448 552 461 573C485 589 548 585 583 575Q602 568 586 544C551 520 541 454 536 393L527 352Z" fill="url(#nose)"/><path d="M574 522Q600 540 605 571L589 583 565 580Q590 567 574 552Z" fill="#9c6245" opacity=".7"/><path d="M466 574Q477 569 490 575M546 577Q560 569 577 572" fill="none" stroke="#865136" stroke-width="5" stroke-linecap="round"/><path d="M501 424C497 468 481 524 478 548Q483 557 496 550" fill="none" stroke="#f7d6a2" stroke-width="9" stroke-linecap="round" opacity=".65"/><path d="M444 573C429 590 410 616 414 643Q418 665 431 676M604 577C628 596 651 617 646 647" fill="none" stroke="#ad754f" stroke-width="5" stroke-linecap="round" opacity=".5"/><path d="M379 645Q409 722 475 753C516 774 570 777 614 755Q549 799 478 766Q418 744 379 645Z" fill="#f0c591" opacity=".65"/><path d="M359 401Q377 373 411 367C433 362 452 372 464 381L462 391Q421 378 390 391Z" fill="#64503c"/><path d="M554 377C580 354 620 344 651 361Q675 374 685 391L676 397Q612 370 560 393Z" fill="#59432f"/><path d="M381 443C404 424 436 421 459 439L455 450Q417 459 383 449Z" fill="#f6e9d1"/><path d="M575 434C600 416 627 416 651 429L650 441Q611 452 578 443Z" fill="#f7ebd4"/><ellipse cx="418" cy="440" rx="18" ry="13" fill="#443a2a"/><ellipse cx="419" cy="439" rx="11" ry="13" fill="#1e2725"/><ellipse cx="615" cy="433" rx="18" ry="13" fill="#403827"/><ellipse cx="615" cy="433" rx="11" ry="12" fill="#182421"/><circle cx="412" cy="435" r="4" fill="#fcfaf2"/><circle cx="609" cy="428" r="4" fill="#fffdf1"/><path d="M378 445C405 421 437 422 462 441M574 436C601 413 627 415 655 433" fill="none" stroke="#69462e" stroke-width="5" stroke-linecap="round"/><path d="M377 451Q419 469 459 448M577 444Q615 459 654 440" fill="none" stroke="#c18d5c" stroke-width="4" stroke-linecap="round"/><path d="M428 634C469 632 488 639 516 634C543 628 562 637 585 630L623 618C611 642 590 655 548 664C505 671 458 657 428 634Z" fill="#ad7253"/><path d="M446 650C483 664 538 669 580 650Q558 687 515 690Q470 685 446 650Z" fill="#c38a62"/><path d="M428 634C469 651 515 657 559 646Q603 639 623 623" fill="none" stroke="#785039" stroke-width="5" stroke-linecap="round"/><path d="M472 672Q512 684 552 671" fill="none" stroke="#e6b17f" stroke-width="5" stroke-linecap="round"/><g fill="none" stroke-linecap="round">
<path d="M369 334Q468 296 652 316" stroke="#b9895c" stroke-width="3" opacity=".52"/>
<path d="M419 287Q510 300 600 291" stroke="#f5d4a6" stroke-width="4" opacity=".7"/>
<path d="M474 349Q482 375 480 397M522 340Q526 365 530 384" stroke="#c18f60" stroke-width="4"/>
<path d="M492 349Q491 376 493 392" stroke="#f4d1a0" stroke-width="5"/>
<path d="M381 414Q420 394 455 413M572 406Q613 390 648 409" stroke="#b88054" stroke-width="3" opacity=".8"/>
<path d="M362 453 345 462M366 461 350 476M654 441 679 447M655 450 683 463" stroke="#ba8456" stroke-width="3"/>
<path d="M376 470Q416 489 457 466M579 463Q620 487 664 462" stroke="#bc8c5d" stroke-width="3.5"/>
<path d="M377 477Q417 496 452 478M584 472Q622 491 657 473" stroke="#f6d3a0" stroke-width="4" opacity=".65"/>
<path d="M404 602Q388 622 396 656M658 602Q675 630 662 658" stroke="#cf9a68" stroke-width="3"/>
<path d="M465 720Q512 740 568 718" stroke="#c99765" stroke-width="3" opacity=".5"/>
</g><g clip-path="url(#hairClip)" fill="none" stroke-linecap="round"><path d="M256 292C327 112 544 37 614 173" stroke="#87908a" stroke-width="2.6" opacity="0.62"/><path d="M254.8 297.3C330 117.30000000000001 546 42.30000000000001 614.5 178.3" stroke="#4e5b58" stroke-width="1.7" opacity="0.58"/><path d="M253.6 302.6C333 122.6 548 47.599999999999994 615 183.6" stroke="#4e5b58" stroke-width="1.7" opacity="0.58"/><path d="M252.4 307.9C336 127.9 550 52.900000000000006 615.5 188.9" stroke="#4e5b58" stroke-width="2.6" opacity="0.58"/><path d="M251.2 313.2C339 133.2 552 58.19999999999999 616 194.2" stroke="#87908a" stroke-width="1.7" opacity="0.62"/><path d="M250 318.5C342 138.5 554 63.5 616.5 199.5" stroke="#4e5b58" stroke-width="1.7" opacity="0.58"/><path d="M248.8 323.8C345 143.8 556 68.80000000000001 617 204.8" stroke="#4e5b58" stroke-width="2.6" opacity="0.58"/><path d="M247.6 329.1C348 149.1 558 74.1 617.5 210.1" stroke="#4e5b58" stroke-width="1.7" opacity="0.58"/><path d="M246.4 334.4C351 154.4 560 79.4 618 215.4" stroke="#87908a" stroke-width="1.7" opacity="0.62"/><path d="M245.2 339.7C354 159.7 562 84.69999999999999 618.5 220.7" stroke="#4e5b58" stroke-width="2.6" opacity="0.58"/><path d="M244 345C357 165 564 90 619 226" stroke="#4e5b58" stroke-width="1.7" opacity="0.58"/><path d="M242.8 350.3C360 170.3 566 95.30000000000001 619.5 231.3" stroke="#4e5b58" stroke-width="1.7" opacity="0.58"/><path d="M241.6 355.6C363 175.6 568 100.6 620 236.6" stroke="#87908a" stroke-width="2.6" opacity="0.62"/><path d="M240.4 360.9C366 180.89999999999998 570 105.89999999999998 620.5 241.89999999999998" stroke="#4e5b58" stroke-width="1.7" opacity="0.58"/><path d="M239.2 366.2C369 186.2 572 111.19999999999999 621 247.2" stroke="#4e5b58" stroke-width="1.7" opacity="0.58"/><path d="M238 371.5C372 191.5 574 116.5 621.5 252.5" stroke="#4e5b58" stroke-width="2.6" opacity="0.58"/><path d="M236.8 376.8C375 196.8 576 121.80000000000001 622 257.8" stroke="#87908a" stroke-width="1.7" opacity="0.62"/><path d="M235.6 382.1C378 202.1 578 127.1 622.5 263.1" stroke="#4e5b58" stroke-width="1.7" opacity="0.58"/><path d="M234.4 387.4C381 207.39999999999998 580 132.39999999999998 623 268.4" stroke="#4e5b58" stroke-width="2.6" opacity="0.58"/><path d="M233.2 392.7C384 212.7 582 137.7 623.5 273.7" stroke="#4e5b58" stroke-width="1.7" opacity="0.58"/><path d="M232 398C387 218 584 143 624 279" stroke="#87908a" stroke-width="1.7" opacity="0.62"/><path d="M230.8 403.3C390 223.3 586 148.3 624.5 284.3" stroke="#4e5b58" stroke-width="2.6" opacity="0.58"/><path d="M229.6 408.6C393 228.6 588 153.6 625 289.6" stroke="#4e5b58" stroke-width="1.7" opacity="0.58"/><path d="M228.4 413.9C396 233.89999999999998 590 158.89999999999998 625.5 294.9" stroke="#4e5b58" stroke-width="1.7" opacity="0.58"/><path d="M227.2 419.2C399 239.2 592 164.2 626 300.2" stroke="#87908a" stroke-width="2.6" opacity="0.62"/><path d="M683 179Q735 223 812 239" stroke="#687773" stroke-width="1.8" opacity=".55"/><path d="M686 185Q738 228 813 247" stroke="#687773" stroke-width="1.8" opacity=".55"/><path d="M689 191Q741 233 814 255" stroke="#687773" stroke-width="1.8" opacity=".55"/><path d="M692 197Q744 238 815 263" stroke="#687773" stroke-width="1.8" opacity=".55"/><path d="M695 203Q747 243 816 271" stroke="#687773" stroke-width="1.8" opacity=".55"/><path d="M698 209Q750 248 817 279" stroke="#687773" stroke-width="1.8" opacity=".55"/><path d="M701 215Q753 253 818 287" stroke="#687773" stroke-width="1.8" opacity=".55"/><path d="M704 221Q756 258 819 295" stroke="#687773" stroke-width="1.8" opacity=".55"/><path d="M707 227Q759 263 820 303" stroke="#687773" stroke-width="1.8" opacity=".55"/><path d="M710 233Q762 268 821 311" stroke="#687773" stroke-width="1.8" opacity=".55"/><path d="M713 239Q765 273 822 319" stroke="#687773" stroke-width="1.8" opacity=".55"/><path d="M716 245Q768 278 823 327" stroke="#687773" stroke-width="1.8" opacity=".55"/><path d="M719 251Q771 283 824 335" stroke="#687773" stroke-width="1.8" opacity=".55"/><path d="M722 257Q774 288 825 343" stroke="#687773" stroke-width="1.8" opacity=".55"/><path d="M255 315Q273 334 290 417" stroke="#a6a49a" stroke-width="2.6" opacity=".58"/><path d="M258 321Q275 338 292 421" stroke="#a6a49a" stroke-width="1.6" opacity=".58"/><path d="M261 327Q277 342 294 425" stroke="#a6a49a" stroke-width="1.6" opacity=".58"/><path d="M264 333Q279 346 296 429" stroke="#a6a49a" stroke-width="2.6" opacity=".58"/><path d="M267 339Q281 350 298 433" stroke="#a6a49a" stroke-width="1.6" opacity=".58"/><path d="M270 345Q283 354 300 437" stroke="#a6a49a" stroke-width="1.6" opacity=".58"/><path d="M273 351Q285 358 302 441" stroke="#a6a49a" stroke-width="2.6" opacity=".58"/><path d="M276 357Q287 362 304 445" stroke="#a6a49a" stroke-width="1.6" opacity=".58"/><path d="M279 363Q289 366 306 449" stroke="#a6a49a" stroke-width="1.6" opacity=".58"/><path d="M282 369Q291 370 308 453" stroke="#a6a49a" stroke-width="2.6" opacity=".58"/><path d="M285 375Q293 374 310 457" stroke="#a6a49a" stroke-width="1.6" opacity=".58"/><path d="M288 381Q295 378 312 461" stroke="#a6a49a" stroke-width="1.6" opacity=".58"/><path d="M291 387Q297 382 314 465" stroke="#a6a49a" stroke-width="2.6" opacity=".58"/><path d="M294 393Q299 386 316 469" stroke="#a6a49a" stroke-width="1.6" opacity=".58"/></g><path d="m490 883 74 73-57 63 34 362H380l65-365-24-69Z" fill="url(#silk)"/><g fill="none" stroke="#5c6a73" stroke-width="2" opacity=".5"><path d="m416 769-105 114 39 50-15 115-83 320M765 669l67 113-31 105-69 37 82 85-304 346"/><path d="m325 1040 69-44M749 930l67-30"/></g><path d="M88 935Q105 1060 51 1368" fill="none" stroke="#7c878b" stroke-width="1.4" opacity=".2"/><path d="M106 931Q123 1060 70 1368" fill="none" stroke="#7c878b" stroke-width="1.4" opacity=".2"/><path d="M124 927Q141 1060 89 1368" fill="none" stroke="#7c878b" stroke-width="1.4" opacity=".2"/><path d="M142 923Q159 1060 108 1368" fill="none" stroke="#7c878b" stroke-width="1.4" opacity=".2"/><path d="M160 919Q177 1060 127 1368" fill="none" stroke="#7c878b" stroke-width="1.4" opacity=".2"/><path d="M178 915Q195 1060 146 1368" fill="none" stroke="#7c878b" stroke-width="1.4" opacity=".2"/><path d="M196 911Q213 1060 165 1368" fill="none" stroke="#7c878b" stroke-width="1.4" opacity=".2"/><path d="M214 907Q231 1060 184 1368" fill="none" stroke="#7c878b" stroke-width="1.4" opacity=".2"/><path d="M232 903Q249 1060 203 1368" fill="none" stroke="#7c878b" stroke-width="1.4" opacity=".2"/><path d="M250 899Q267 1060 222 1368" fill="none" stroke="#7c878b" stroke-width="1.4" opacity=".2"/><path d="M899 837  850 1368" fill="none" stroke="#7c878b" stroke-width="1.4" opacity=".18"/><path d="M918 844  870 1368" fill="none" stroke="#7c878b" stroke-width="1.4" opacity=".18"/><path d="M937 851  890 1368" fill="none" stroke="#7c878b" stroke-width="1.4" opacity=".18"/><path d="M956 858  910 1368" fill="none" stroke="#7c878b" stroke-width="1.4" opacity=".18"/><path d="M975 865  930 1368" fill="none" stroke="#7c878b" stroke-width="1.4" opacity=".18"/><path d="M994 872  950 1368" fill="none" stroke="#7c878b" stroke-width="1.4" opacity=".18"/><path d="M1013 879  970 1368" fill="none" stroke="#7c878b" stroke-width="1.4" opacity=".18"/><path d="M1032 886  990 1368" fill="none" stroke="#7c878b" stroke-width="1.4" opacity=".18"/><path d="M1051 893  1010 1368" fill="none" stroke="#7c878b" stroke-width="1.4" opacity=".18"/><path d="M1070 900  1030 1368" fill="none" stroke="#7c878b" stroke-width="1.4" opacity=".18"/></svg>